<svg xmlns="http://www.w3.org/2000/svg" xmlns:xlink="http://www.w3.org/1999/xlink" fill="none" version="1.1" width="48" height="36.90559005737305" viewBox="0 0 48 36.90559005737305"><defs><clipPath id="master_svg0_18_6481"><rect x="0" y="0" width="48" height="36.90559005737305" rx="0"/></clipPath></defs><g clip-path="url(#master_svg0_18_6481)"><path d="M29.42366,36.90559C25.702459,36.90559,22.673119,33.878719,22.673119,30.15505L22.673119,18.470091C22.673119,17.721405,23.305676,17.091322,24.051891,17.091322C24.798109,17.091322,25.430662,17.723875,25.430662,18.470091L25.430662,30.095749C25.430662,32.297337,27.222076,34.086277,29.421192,34.086277L37.802536,34.086277C41.741177,34.086277,44.997841,31.153299,45.217747,27.409861C45.331417,25.368885,44.646969,23.468752,43.290436,22.055389C41.864716,20.57284,40.048595,19.787088,38.039742,19.787088L37.861839,19.787088C37.459072,19.787088,37.09338,19.633892,36.804283,19.347265L36.779572,19.322559L36.757336,19.292906C36.492947,18.939566,36.406467,18.559042,36.490475,18.131575C36.853703,16.377226,36.87347,14.697003,36.549782,13.135386C35.591061,7.6647782,31.009985,3.4148042,25.410894,2.7847207C24.946362,2.7328317,24.474415,2.7081223,24.009882,2.7081223C20.923712,2.7081223,17.931433,3.8645108,15.584064,5.9672594C12.875941,8.3862858,11.321734,11.82333,11.321734,15.396274C11.321734,16.095541,10.805312,16.686092,10.120869,16.772573C5.7621741,17.387831,2.5944612,21.227633,2.7624829,25.707401C2.930505,30.325541,7.0001025,34.083809,11.830742,34.083809L15.902812,34.083809C16.651499,34.083809,17.281582,34.716362,17.281582,35.462582C17.281582,36.208797,16.649031,36.784519,15.843509,36.784519L11.771441,36.784519C5.5373211,36.786987,0.25944611,31.862452,0.012354578,25.806238C-0.2273242,20.362814,3.3629158,15.554412,8.5963154,14.234942C8.9274168,10.22959,10.750953,6.5825191,13.753115,3.9336975C16.604551,1.398538,20.254093,0,24.02718,0C24.600435,0,25.183569,0.032121897,25.759293,0.093894772C32.564194,0.76845467,38.133636,5.9351382,39.294964,12.6585C39.576653,14.239885,39.638424,15.715021,39.480286,17.143209C41.718933,17.44219,43.82169,18.539278,45.314114,20.202202C47.214249,22.22341,48.163082,24.872232,47.977764,27.64707C47.666428,32.835991,43.196541,36.903118,37.805004,36.903118L29.42366,36.903118L29.42366,36.90559Z" fill="#AAAAAA" fill-opacity="1" style="mix-blend-mode:passthrough"/><path d="M31.01733715625,25.573967890625C30.61210615625,25.573967890625,30.26865115625,25.443010290625,30.01908815625,25.193447090625L23.99252415625,19.110052790625L17.96843335625,25.131674790625C17.70404575625,25.396062890625,17.36058845625,25.541847190625,16.99983505625,25.541847190625C16.63908145625,25.541847190625,16.29562443625,25.396063790625,16.03123661625,25.131674790625C15.48763498625,24.588074690625,15.48763498625,23.735606690624998,16.03123661625,23.194475690624998L23.05357835625,16.172134790625C23.315494556250002,15.910218370625,23.676248556250002,15.761962890625,24.04441545625,15.761962890625C24.41258335625,15.761962890625,24.77086545625,15.915159390625,25.00560095625,16.184490110625L32.01559115625,23.194477990625C32.55919115625,23.738077590625,32.55919115625,24.590544690625002,32.01559115625,25.131676690625C31.73637415625,25.410888690625,31.37315115625,25.571499790624998,31.01733915625,25.571499790624998L31.01733715625,25.573967890625Z" fill="#AAAAAA" fill-opacity="1" style="mix-blend-mode:passthrough"/></g></svg>