<svg xmlns="http://www.w3.org/2000/svg" width="24" height="24" viewBox="0 0 24 24">
  <defs>
    <style>
      .cls-1 {
        fill: #323232;
        fill-rule: evenodd;
      }
    </style>
  </defs>
  <path id="任务管理" class="cls-1" d="M65.9,111.977H48.045a3.086,3.086,0,0,1-3.079-3.085V93.031a3.086,3.086,0,0,1,3.079-3.085h2.873V88.834a0.865,0.865,0,1,1,1.73,0v1.111H61.3V88.834a0.865,0.865,0,1,1,1.73,0v1.111H65.9a3.087,3.087,0,0,1,3.08,3.085v15.861A3.086,3.086,0,0,1,65.9,111.977Zm1.263-18.946A1.265,1.265,0,0,0,65.9,91.765H63.025v1.053a0.865,0.865,0,1,1-1.73,0V91.765H52.648v1.053a0.865,0.865,0,1,1-1.73,0V91.765H48.045a1.266,1.266,0,0,0-1.264,1.265v15.861a1.266,1.266,0,0,0,1.264,1.265H65.9a1.265,1.265,0,0,0,1.263-1.265V93.031Zm-3.415,12.262H56.828a0.867,0.867,0,0,1,0-1.733h6.918A0.867,0.867,0,0,1,63.746,105.293Zm0-5.544H56.828a0.866,0.866,0,0,1,0-1.733h6.918A0.866,0.866,0,0,1,63.746,99.749Zm-11.991,6.063a1.736,1.736,0,0,1-.519.174,1.313,1.313,0,0,1-.692-0.347L49.16,104.08a0.857,0.857,0,0,1,1.211-1.213l0.865,0.866,1.384-1.559a0.857,0.857,0,0,1,1.211,1.213Zm0.173-5.544a0.863,0.863,0,0,1-1.384,0L49.16,98.709A0.857,0.857,0,1,1,50.371,97.5l0.865,0.866L52.619,96.8a0.857,0.857,0,0,1,1.211,1.213Z" transform="translate(-44.969 -87.969)"/>
</svg>

