<svg xmlns="http://www.w3.org/2000/svg" xmlns:xlink="http://www.w3.org/1999/xlink" fill="none" version="1.1" width="22" height="22.015840530395508" viewBox="0 0 22 22.015840530395508"><defs><clipPath id="master_svg0_18_6477"><rect x="0" y="0" width="22" height="22.015840530395508" rx="0"/></clipPath></defs><g clip-path="url(#master_svg0_18_6477)"><path d="M10.999341,14.316435C11.606528,14.316435,12.098879,13.824084,12.098879,13.216896L12.098879,4.4166317L15.475372,4.4166317C15.611329,4.4166317,15.742006,4.3664727,15.842323,4.2753949L15.910963,4.2001567C16.09576,3.9586015,16.049561,3.6140881,15.808004,3.4292917C15.808004,3.4292917,11.53789,0.16895664,11.53789,0.16895664C11.242216,-0.056758877,10.830385,-0.056758877,10.534711,0.16895664L6.2936344,3.4319317C6.0533996,3.6167281,6.0085201,3.9625614,6.1933165,4.2027965C6.2975945,4.3374338,6.4573112,4.4166317,6.6275883,4.4166317L9.8984833,4.4166317L9.8984833,13.216896C9.8984833,13.824084,10.390834,14.316435,10.998022,14.316435L10.999341,14.316435ZM16.920742,6.6236286C16.317514,6.6949067,15.887203,7.2426958,15.958483,7.8459244C16.024481,8.3989935,16.493073,8.814784,17.050098,8.8161049L19.799604,8.8161049L19.799604,19.815445L2.2003963,19.815445L2.2003963,8.8161049L4.9499011,8.8161049C5.5570889,8.8161049,6.0494394,8.3237543,6.0494394,7.7165661C6.0494394,7.1093783,5.5570893,6.6170278,4.9499011,6.6170278L2.2003963,6.6170278C0.98470038,6.6170282,0,7.6017289,0,8.8161049L0,19.815445C0,21.029821,0.98470038,22.015841,2.2003963,22.015841L19.799604,22.015841C21.013981,22.015841,22,21.031139,22,19.815445L22,8.8161049C22,7.6017289,21.015299,6.6157084,19.799604,6.6157084L17.050098,6.6157084L16.920742,6.6236286Z" fill="#FFFFFF" fill-opacity="1" style="mix-blend-mode:passthrough"/></g></svg>