<svg xmlns="http://www.w3.org/2000/svg" width="24" height="24" viewBox="0 0 24 24">
  <defs>
    <style>
      .cls-1 {
        fill: #323232;
        fill-rule: evenodd;
      }
    </style>
  </defs>
  <path id="数据上传" class="cls-1" d="M150.855,105.747h-0.014a1,1,0,0,1,.006-2,4.171,4.171,0,0,0,2.906-1.173,3.943,3.943,0,0,0,.964-4.188A4.08,4.08,0,0,0,151.8,95.83l-0.933-.214-0.2-.179-0.2-.974a5.427,5.427,0,0,0-1.889-3.186A5.628,5.628,0,0,0,145.005,90a5.689,5.689,0,0,0-1.951.34,5.507,5.507,0,0,0-3.533,4.127l-0.17.924-0.173.2-0.983.242a4.159,4.159,0,0,0-2.257,1.4,3.943,3.943,0,0,0,.3,5.34,4.146,4.146,0,0,0,2.885,1.174,1.026,1.026,0,0,1,1.02.975,0.981,0.981,0,0,1-.281.716,1.025,1.025,0,0,1-.716.313,6.092,6.092,0,0,1-6.158-6.013,6.031,6.031,0,0,1,4.549-5.808,7.654,7.654,0,0,1,14.916,0A6,6,0,0,1,150.855,105.747Zm-6.6-4.536a1.022,1.022,0,0,1,.752-0.333,1.034,1.034,0,0,1,.728.3l2.8,2.743a0.992,0.992,0,0,1,0,1.416,1.042,1.042,0,0,1-1.449,0l-1.05-1.026v6.683a1.024,1.024,0,0,1-2.048,0v-6.683l-1.048,1.024a1.035,1.035,0,0,1-.725.293,1.024,1.024,0,0,1-.723-0.293,0.99,0.99,0,0,1,0-1.417Z" transform="translate(-133 -88)"/>
</svg>

