<svg xmlns="http://www.w3.org/2000/svg" width="24" height="24" viewBox="0 0 24 24">
  <defs>
    <style>
      .cls-1 {
        fill: #323232;
        fill-rule: evenodd;
      }
    </style>
  </defs>
  <path id="查询码" class="cls-1" d="M247.76,112.743a0.9,0.9,0,0,1-.607.253,0.787,0.787,0,0,1-.576-0.222l-2.109-1.975a5.2,5.2,0,1,1,1.185-1.183l2.068,1.934A0.835,0.835,0,0,1,247.76,112.743Zm-6.268-9.6a3.436,3.436,0,0,0,0,6.872,3.474,3.474,0,0,0,3.426-3.441A3.433,3.433,0,0,0,241.492,103.145Zm5.129-3.581H237.66a0.787,0.787,0,0,1-.786-0.788V89.788A0.787,0.787,0,0,1,237.66,89h8.961a0.787,0.787,0,0,1,.786.788v8.988A0.787,0.787,0,0,1,246.621,99.564Zm-1.129-7.855a0.787,0.787,0,0,0-.786-0.788h-5.131a0.787,0.787,0,0,0-.786.788v5.146a0.787,0.787,0,0,0,.786.788h5.131a0.787,0.787,0,0,0,.786-0.788V91.709Zm-2.7,4.014h-1.3a0.787,0.787,0,0,1-.786-0.789v-1.3a0.787,0.787,0,0,1,.786-0.789h1.3a0.787,0.787,0,0,1,.786.789v1.3A0.787,0.787,0,0,1,242.791,95.723Zm-9.044,16.754h-8.961a0.787,0.787,0,0,1-.786-0.789V102.7a0.787,0.787,0,0,1,.786-0.788h8.961a0.787,0.787,0,0,1,.786.788v8.988A0.787,0.787,0,0,1,233.747,112.477Zm-1.129-7.856a0.787,0.787,0,0,0-.786-0.788H226.7a0.787,0.787,0,0,0-.786.788v5.146a0.787,0.787,0,0,0,.786.789h5.131a0.787,0.787,0,0,0,.786-0.789v-5.146Zm-2.7,4.014h-1.3a0.787,0.787,0,0,1-.786-0.788v-1.3a0.787,0.787,0,0,1,.786-0.788h1.3a0.787,0.787,0,0,1,.786.788v1.3A0.787,0.787,0,0,1,229.917,108.635Zm3.83-9.071h-8.961A0.787,0.787,0,0,1,224,98.776V89.788A0.787,0.787,0,0,1,224.786,89h8.961a0.787,0.787,0,0,1,.786.788v8.988A0.787,0.787,0,0,1,233.747,99.564Zm-1.129-7.855a0.787,0.787,0,0,0-.786-0.788H226.7a0.787,0.787,0,0,0-.786.788v5.146a0.787,0.787,0,0,0,.786.788h5.131a0.787,0.787,0,0,0,.786-0.788V91.709Zm-2.7,4.014h-1.3a0.787,0.787,0,0,1-.786-0.789v-1.3a0.787,0.787,0,0,1,.786-0.789h1.3a0.787,0.787,0,0,1,.786.789v1.3A0.787,0.787,0,0,1,229.917,95.723Z" transform="translate(-224 -89)"/>
</svg>

