<svg xmlns="http://www.w3.org/2000/svg" width="24" height="24.031" viewBox="0 0 24 24.031">
  <defs>
    <style>
      .cls-1 {
        fill: #323232;
        fill-rule: evenodd;
      }
    </style>
  </defs>
  <path id="清屏" class="cls-1" d="M422.511,96.431L420.418,95.4l-2.125-1.1,2.638-5.162a0.765,0.765,0,0,0-.458-0.952,0.8,0.8,0,0,0-1.056.228l-2.636,5.157-1.982-.938-2.716-1.338L412,91.26l-0.084-.028-0.086-.017-0.086-.012h-0.085l-0.086.005-0.086.014-0.082.022-0.079.029-0.075.038-0.074.045-0.069.051c-0.021.018-.043,0.037-0.063,0.057l-0.057.065c-0.018.023-.035,0.047-0.051,0.072l-0.045.072a16.956,16.956,0,0,1-2.434,3.475,20.059,20.059,0,0,1-2.091,2A23.291,23.291,0,0,1,399.6,101a0.965,0.965,0,0,0-.146,1.678l15.271,9.142a1.834,1.834,0,0,0,1.481.031,23.348,23.348,0,0,0,5.011-6.889,18.171,18.171,0,0,0,1.812-7.7,0.86,0.86,0,0,0-.158-0.5,0.878,0.878,0,0,0-.362-0.329h0Zm-2.7,7.819a22.122,22.122,0,0,1-4.342,6.134l-3.48-2.083,2.188-2.093a0.882,0.882,0,0,0,.033-1.248l-0.02-.021a0.927,0.927,0,0,0-1.294-.015l-2.517,2.411-4.092-2.449,2.469-1.7a0.882,0.882,0,0,0,.242-1.225,0.188,0.188,0,0,0-.016-0.023,0.926,0.926,0,0,0-1.275-.22l-3.122,2.144-3.188-1.9a25.362,25.362,0,0,0,5.946-3.641,22.45,22.45,0,0,0,1.824-1.684l11.217,6.277c-0.171.453-.362,0.9-0.569,1.338h0Zm-9.757-8.985a19.8,19.8,0,0,0,1.676-2.416l9.748,4.8a16.608,16.608,0,0,1-.566,3.695Z" transform="translate(-399.031 -88.094)"/>
</svg>

