<svg xmlns="http://www.w3.org/2000/svg" width="24" height="24" viewBox="0 0 24 24">
  <defs>
    <style>
      .cls-1 {
        fill: #323232;
        fill-rule: evenodd;
      }
    </style>
  </defs>
  <path id="码替换" class="cls-1" d="M333.406,99.456l-2.456-3.628h1.45l0.1-.118c-0.468-2.8-2.593-4.654-5.683-4.962a0.9,0.9,0,0,1-.727-0.876,0.862,0.862,0,0,1,.835-0.861,7.628,7.628,0,0,1,7.2,6.727l0.1,0.089h1.636Zm1.412,3.184a0.943,0.943,0,0,1,.274.665v8.751a0.86,0.86,0,0,1-.828.905h-9.208a0.862,0.862,0,0,1-.831-0.905v-8.75a0.863,0.863,0,0,1,.831-0.907h9.21A0.8,0.8,0,0,1,334.818,102.64Zm-1.348,1.633-0.1-.1h-7.418l-0.1.1v6.814l0.1,0.1h7.418l0.1-.1v-6.814Zm-3.141,4.717h-1.322a0.8,0.8,0,0,1-.8-0.793v-1.312a0.8,0.8,0,0,1,.8-0.793h1.322a0.8,0.8,0,0,1,.8.793V108.2A0.8,0.8,0,0,1,330.329,108.99ZM322.707,99.5H313.5a0.862,0.862,0,0,1-.831-0.908V89.881a0.862,0.862,0,0,1,.831-0.907h9.207a0.862,0.862,0,0,1,.831.907v8.708A0.862,0.862,0,0,1,322.707,99.5Zm-0.893-8.79H314.4l-0.1.1v6.855l0.1,0.1h7.418l0.1-.1,0-6.855Zm-3.066,4.97h-1.322a0.8,0.8,0,0,1-.8-0.793V93.571a0.8,0.8,0,0,1,.8-0.793h1.322a0.8,0.8,0,0,1,.8.793v1.312A0.8,0.8,0,0,1,318.748,95.677Zm-1.973,9.423h-1.562l-0.1.1a5.983,5.983,0,0,0,5.8,5.944,0.876,0.876,0,0,1,.473,1.483,0.831,0.831,0,0,1-.584.253l-0.058,0a7.648,7.648,0,0,1-7.214-7.683l-0.1-.1h-1.561l2.456-3.628Z" transform="translate(-311.875 -88.969)"/>
</svg>

