<svg xmlns="http://www.w3.org/2000/svg" xmlns:xlink="http://www.w3.org/1999/xlink" fill="none" version="1.1" width="14" height="12.182466506958008" viewBox="0 0 14 12.182466506958008"><defs><clipPath id="master_svg0_18_2745"><rect x="0" y="0" width="14" height="12.182466506958008" rx="0"/></clipPath></defs><g clip-path="url(#master_svg0_18_2745)"><path d="M13.716779,10.03094L8.2157869,0.89884961C7.5462112,-0.29988095,6.4529948,-0.29988095,5.7826257,0.89884961L0.28242761,10.03094C-0.3871479,11.229671,0.17691392,12.181674,1.5168583,12.181674L12.518047,12.181674C13.822292,12.181674,14.387147,11.194764,13.716779,10.03094ZM6.4886947,3.6493454C6.4886947,3.3669178,6.7354226,3.1201904,7.0178499,3.1201904C7.3002768,3.1201904,7.5470047,3.3669181,7.5470047,3.6493454L7.5470047,7.3518443C7.5470047,7.6342716,7.3002768,7.8809991,7.0178499,7.8809991C6.7354226,7.8809991,6.4886947,7.6342716,6.4886947,7.3518443L6.4886947,3.6493454ZM6.9821501,10.137246C6.5593014,10.137246,6.2419672,9.7850056,6.2419672,9.3970642C6.2419672,9.0091228,6.5942087,8.6568813,6.9821501,8.6568813C7.370091,8.6568813,7.7223325,9.0091228,7.7223325,9.3970642C7.7223325,9.7850056,7.4049978,10.137246,6.9821501,10.137246Z" fill="#F44336" fill-opacity="1" style="mix-blend-mode:passthrough"/></g></svg>